<?xml version="1.0" encoding="utf-8"?>
<!-- Generator: Adobe Illustrator 19.1.0, SVG Export Plug-In . SVG Version: 6.00 Build 0)  -->
<svg version="1.1" id="Layer_1" xmlns="http://www.w3.org/2000/svg" xmlns:xlink="http://www.w3.org/1999/xlink" x="0px" y="0px"
	 width="680px" height="190px" viewBox="-171 300 680 190" enable-background="new -171 300 680 190" xml:space="preserve">
<rect x="-91" y="418" fill="#CCD6E4" width="10" height="101"/>
<g>
	<path fill="#3D79C9" d="M-51.9,343h-66c-0.3,0-0.7,0-1,0s-0.7,0-1,0l0,0c-0.6,0-1.1,0-1.7,0.1l0,0l0,0
		c-15.1,0.9-27.2,13.5-27.2,28.8V418h27.2h30.7h33.6h34.5v-46.1C-23,356-36,343-51.9,343z"/>
</g>
<path fill="#3D79C9" enable-background="new    " d="M255,300"/>
<path fill="#639AE4" d="M288.1,343h-66c-0.3,0-0.7,0-1,0c15.4,0.6,27.9,13.3,27.9,28.9V418h68v-46.1C317,356,304,343,288.1,343z"/>
<path opacity="0.2" fill="#245FAE" enable-background="new    " d="M215,343.2c1.1-0.1,4.2-0.2,5.3-0.2l0,0
	c15.8,0,28.7,13,28.7,28.9V418h-9v-46.1C240,357.1,229.2,344.9,215,343.2z"/>
<path fill="#FFFFFF" d="M102.2,414.3H41c-2.5,0-4.5-2-4.5-4.5v-39.6c0-2.5,2-4.5,4.5-4.5h61.1c2.5,0,4.5,2,4.5,4.5v39.6
	C106.7,412.3,104.6,414.3,102.2,414.3z"/>
<path fill="#FFFFFF" d="M79,371.9c0-2.1-0.2-4.2-0.7-6.2H41.1c-2.5,0-4.5,2-4.5,4.5v39.6c0,2.5,2,4.5,4.5,4.5H79V371.9z"/>
<rect x="43.2" y="371.5" fill="#F2F4F6" width="15" height="4"/>
<rect x="43.2" y="378.2" fill="#F2F4F6" width="13.3" height="4"/>
<rect x="63" y="394.2" fill="#F2F4F6" width="31.2" height="4"/>
<rect x="63" y="402.2" fill="#F2F4F6" width="25.2" height="4"/>
<path fill="#F1F1F1" d="M446,356.2V389h4v-22.3V354h-1.9C447,354,446,355,446,356.2z"/>
<path fill="#FAB93E" d="M450,354v13h14.8c1.1,0,1.6-1.6,0.8-2.3l-2.8-2.2c-1.2-1.2-1.2-3,0-4.2l2.8-2.2c0.8-0.8,0.2-2.1-0.8-2.1
	L450,354L450,354z"/>
<rect x="92.8" y="371.5" fill="#F2F4F6" width="8.5" height="8.7"/>
</svg>
